<svg width="384" height="393" viewBox="0 0 384 393" fill="none" xmlns="http://www.w3.org/2000/svg">
<g  clip-path="url(#clip0_5360_31843)">
<path d="M280.78 176.312V118.971C280.78 112.51 275.551 107.295 269.113 107.295H211.812C205.355 107.295 200.145 102.062 200.145 95.6191V0H294.072V53.1658C294.072 78.9741 314.972 99.889 340.762 99.889H387.999V188.007H292.467C286.01 188.007 280.799 182.774 280.799 176.331L280.78 176.312Z" fill="#F2F3F5"/>
<path d="M107.219 176.312V118.971C107.219 112.51 112.448 107.295 118.886 107.295H176.187C182.644 107.295 187.855 102.062 187.855 95.6191V0H93.9273V53.1658C93.9273 78.9741 73.0273 99.889 47.2374 99.889H0V188.007H95.5321C101.989 188.007 107.2 182.774 107.2 176.331L107.219 176.312Z" fill="#F2F3F5"/>
<path d="M280.78 216.688V274.03C280.78 280.491 275.551 285.706 269.113 285.706H211.812C205.355 285.706 200.145 290.939 200.145 297.382V392.982H294.072V339.816C294.072 314.008 314.972 293.093 340.762 293.093H387.999V204.975H292.467C286.01 204.975 280.799 210.208 280.799 216.651L280.78 216.688Z" fill="#F2F3F5"/>
<path d="M107.219 216.688V274.03C107.219 280.491 112.448 285.706 118.886 285.706H176.187C182.644 285.706 187.855 290.939 187.855 297.382V392.982H93.9273V339.816C93.9273 314.008 73.0273 293.093 47.2374 293.093H0V204.975H95.5321C101.989 204.975 107.2 210.208 107.2 216.651L107.219 216.688Z" fill="#F2F3F5"/>
</g>
<defs>
<clipPath id="clip0_5360_31843">
<rect width="388" height="393" fill="#F8009E"/>
</clipPath>
</defs>
</svg>
