<svg width="270" height="325" viewBox="0 0 270 325" fill="none" xmlns="http://www.w3.org/2000/svg">
<g clip-path="url(#clip0_5332_24297)">
<path d="M140.638 237.271L0 274.828L134.999 319.603L270 274.828L140.638 237.271Z" fill="#FA4DBB"/>
<path d="M270.001 274.828V278.094L135 324.999V319.603L270.001 274.828Z" fill="#FDBFE7"/>
<path d="M0 274.828L134.999 319.603V324.999L0 278.44V274.828Z" fill="#95005F"/>
<g style="mix-blend-mode:multiply" opacity="0.44">
<path d="M207.654 265.161C207.654 262.055 205.775 259.071 202.362 256.289L145.003 239.633C140.851 239.184 136.57 238.815 132.159 238.527L13.7656 270.139C22.1433 282.866 61.9768 292.51 109.888 292.51C163.88 292.517 207.654 280.273 207.654 265.161Z" fill="#95005F"/>
</g>
<path d="M149.692 34.1875H120.304L54.8047 266.603C54.8047 266.603 62.3488 293.889 134.998 293.433C207.65 293.882 215.194 266.603 215.194 266.603L149.692 34.1875Z" fill="url(#paint0_linear_5332_24297)"/>
<path d="M63.1846 236.877L54.8047 266.603C54.8047 266.603 62.3488 293.889 134.998 293.433C207.652 293.882 215.194 266.603 215.194 266.603L206.821 236.877C183.495 243.741 159.307 247.212 134.998 247.184C110.692 247.211 86.5077 243.741 63.1846 236.877Z" fill="url(#paint1_linear_5332_24297)"/>
<path d="M90.8912 138.551L76.8672 188.32C96.0286 191.98 115.492 193.82 134.998 193.812C154.507 193.82 173.974 191.981 193.139 188.32L179.106 138.551C164.54 141.095 149.783 142.374 134.998 142.371C120.213 142.374 105.456 141.095 90.8912 138.551Z" fill="url(#paint2_linear_5332_24297)"/>
<path d="M145.461 34.1875H120.307L107.605 79.248C116.658 80.0466 125.789 80.4482 134.999 80.4527C144.21 80.4572 153.341 80.0556 162.393 79.248L149.695 34.1875H145.461Z" fill="url(#paint3_linear_5332_24297)"/>
<path d="M149.672 34.1873C149.672 36.1852 143.107 37.8034 135.005 37.8034C126.903 37.8034 120.32 36.183 120.32 34.1873C120.32 32.1916 126.899 30.5645 134.999 30.5645C143.098 30.5645 149.672 32.1893 149.672 34.1873Z" fill="#964504"/>
<path d="M149.402 34.0995C149.402 35.9311 142.958 37.4167 135.01 37.4167C127.063 37.4167 120.621 35.9311 120.621 34.0995C120.621 32.2679 127.065 30.7891 135.01 30.7891C142.955 30.7891 149.402 32.2634 149.402 34.0995Z" fill="#632D09"/>
<g style="mix-blend-mode:multiply" opacity="0.42">
<path d="M135.009 34.1875H120.304L54.8047 266.603C54.8047 266.603 58.8131 281.083 89.086 288.769L135.009 34.1875Z" fill="#FC99D8"/>
</g>
<path style="mix-blend-mode:multiply" d="M219.634 99.9557C219.634 155.159 189.585 199.911 152.521 199.911C115.457 199.911 85.4102 155.159 85.4102 99.9557C85.4102 44.7526 115.452 0 152.521 0C189.589 0 219.634 44.7526 219.634 99.9557Z" fill="url(#paint4_radial_5332_24297)"/>
<path d="M82.1027 55.5532C82.1027 55.5532 103.409 20.7183 139.052 13.4412C174.696 6.16412 224.047 26.3841 234.592 75.4854C234.592 75.4854 240.818 112.365 218.816 146.713C218.816 146.713 208.33 147.074 150.589 112.644C92.8486 78.2138 75.829 67.2419 82.1027 55.5532Z" fill="url(#paint5_linear_5332_24297)"/>
<path d="M209.147 60.5719L229.176 73.0944C229.176 73.0944 235.499 66.1162 230.296 54.2162C225.093 42.3162 203.355 9.13541 162.524 7.19141C162.524 7.19141 151.769 7.44536 137.629 14.2146C137.629 14.2146 164.095 8.91966 184.171 27.2495C204.247 45.5794 203.599 55.1129 209.147 60.5719Z" fill="url(#paint6_linear_5332_24297)"/>
<path d="M220.823 62.7021C208.437 55.4609 210.758 54.9215 200.814 39.7448C191.852 26.0558 174.131 4.88747 140.024 13.1197C139.235 13.4681 138.442 13.8299 137.629 14.2187C137.629 14.2187 164.095 8.92381 184.171 27.2537C204.247 45.5835 203.599 55.1215 209.147 60.5917L229.176 73.1143C229.176 73.1143 231.192 70.8984 232.012 66.8418C229.595 66.7024 226.014 65.7226 220.823 62.7021Z" fill="url(#paint7_linear_5332_24297)"/>
<path style="mix-blend-mode:multiply" opacity="0.52" d="M150.59 112.645C208.331 147.075 218.817 146.713 218.817 146.713C236.042 119.83 235.966 91.3954 235.126 80.3066C232.798 93.1393 222.003 139.849 190.002 123.996C153.032 105.689 149.506 91.31 114.942 81.745C108.953 80.0886 105.211 80.8955 103.109 83.3586C114.165 90.8155 129.714 100.194 150.59 112.645Z" fill="url(#paint8_linear_5332_24297)"/>
<path d="M219.619 145.499C219.619 145.499 204.815 143.213 159.949 114.168C115.083 85.1221 93.6786 78.1237 81.7048 56.3621C81.7048 56.3621 78.6822 54.1956 72.1867 55.0586C65.6912 55.9216 67.3963 63.2998 75.3235 70.251C83.2508 77.2023 94.7899 82.0859 113.544 98.7931C132.298 115.5 144.567 128.805 162.963 141.298C181.358 153.792 225.7 178.862 226.621 170.463C227.541 162.064 222.455 151.589 219.619 145.499Z" fill="url(#paint9_linear_5332_24297)"/>
<path d="M226.621 170.463C226.939 167.591 226.538 164.476 225.778 161.372C226.356 164.087 226.623 166.786 226.352 169.296C225.44 177.695 181.091 152.627 162.694 140.132C144.296 127.636 132.042 114.331 113.282 97.6265C94.5211 80.9215 82.9931 76.0356 75.0592 69.0866C71.4182 65.8931 69.0879 62.6118 68.2656 59.9082C68.6913 62.7939 71.1426 66.583 75.3303 70.2463C83.262 77.193 94.7967 82.0811 113.551 98.7884C132.304 115.496 144.567 128.805 162.963 141.298C181.358 153.791 225.711 178.861 226.621 170.463Z" fill="url(#paint10_linear_5332_24297)"/>
<path d="M158.198 118.065L161.758 116.777C161.758 116.777 164.328 105.902 152.619 94.5281C140.909 83.1539 130.708 83.6214 127.042 89.3433C123.377 95.0652 128.1 89.9568 128.1 89.9568L155.769 112.035L158.198 118.065Z" fill="url(#paint11_linear_5332_24297)"/>
<path d="M127.044 89.3437C127.044 89.3437 132.278 83.5903 141.25 88.865C150.221 94.1397 160.687 105.006 158.207 118.066C158.207 118.066 126.466 98.2749 124.34 96.8995C122.214 95.5241 123.798 91.3933 127.044 89.3437Z" fill="url(#paint12_linear_5332_24297)"/>
<path d="M116.482 82.7491C116.482 82.7491 92.8728 69.5927 85.4115 57.623L81.9453 65.8328C81.9453 65.8328 104.428 85.3673 112.832 88.6261L116.482 82.7491Z" fill="url(#paint13_linear_5332_24297)"/>
<path d="M90.5949 55.8008C90.5949 55.8008 99.0106 67.712 120.467 79.5357L115.118 83.3428C115.118 83.3428 88.2781 66.213 85.4102 57.6234L90.5949 55.8008Z" fill="url(#paint14_linear_5332_24297)"/>
<path d="M116.49 85.9335L120.465 79.5352L116.241 82.5422L112.336 89.4215L116.49 85.9335Z" fill="url(#paint15_linear_5332_24297)"/>
<path opacity="0.88" d="M229.479 57.8048C229.479 57.8048 222.121 37.6702 205.76 25.096L201.055 23.6172C201.055 23.6172 217.561 36.996 225.457 56.2923L229.479 57.8048Z" fill="white"/>
<path opacity="0.73" d="M204.518 62.3022C204.518 62.3022 201.334 47.6941 186.998 35.5918L184.074 36.0907C184.074 36.0907 195.329 47.7772 200.41 63.0596L204.518 62.3022Z" fill="white"/>
<path opacity="0.36" d="M211.91 165.032C211.91 165.032 174.677 148.754 162.152 136.939C162.152 136.942 228.94 169.707 211.91 165.032Z" fill="white"/>
<path opacity="0.51" d="M220.197 141.812C220.035 142.081 234.985 117.182 234.411 92.252C234.411 92.2609 229.242 126.716 220.197 141.812Z" fill="#F48414"/>
<path d="M83.4062 56.3693C83.4062 56.3693 103.359 28.4543 126.399 19.9883C126.399 19.9883 101.313 27.5261 83.4062 56.3693Z" fill="#BA0077"/>
<path opacity="0.38" d="M203.76 118.472C203.76 118.472 214.418 107.701 221.942 116.382C229.466 125.064 208.483 143.738 191.205 130.746C173.928 117.753 189.543 123.417 203.76 118.472Z" fill="white"/>
<path opacity="0.28" d="M220.475 149.136C220.475 149.136 227.584 169.012 223.215 169.562C218.846 170.113 208.45 165.02 203.198 162.283C197.946 159.546 220.809 163.117 217.537 155.091C214.266 147.066 218.111 143.859 220.475 149.136Z" fill="white"/>
<path opacity="0.35" d="M100.167 85.0861C100.167 85.0861 116.763 95.1995 124.771 105.839C132.779 116.478 151.658 126.809 157.753 132.293C163.847 137.777 161.358 129.398 145.837 117.954C130.316 106.511 128.313 103.526 121.531 96.5547C114.749 89.5832 83.2949 72.5141 100.167 85.0861Z" fill="white"/>
<g style="mix-blend-mode:multiply" opacity="0.29">
<path d="M78.9378 56.5016C78.9378 56.5016 68.3397 55.1532 70.3159 61.1897C72.2921 67.2263 77.8937 71.1997 82.8432 73.7123C87.7927 76.2249 74.5305 65.2036 76.733 60.8504C78.9355 56.4971 84.2167 58.0928 78.9378 56.5016Z" fill="#F48414"/>
</g>
<path opacity="0.51" d="M122.239 26.686C122.239 26.686 92.3474 43.7663 95.2177 53.774C98.0879 63.7818 113.062 57.0328 114.722 48.0005C116.382 38.9681 137.574 21.7462 122.239 26.686Z" fill="#FC99D8"/>
</g>
<defs>
<linearGradient id="paint0_linear_5332_24297" x1="124.024" y1="162.519" x2="-162.6" y2="123.416" gradientUnits="userSpaceOnUse">
<stop stop-color="white"/>
<stop offset="1" stop-color="#231F20"/>
</linearGradient>
<linearGradient id="paint1_linear_5332_24297" x1="54.8047" y1="265.163" x2="215.194" y2="265.163" gradientUnits="userSpaceOnUse">
<stop stop-color="#95005F"/>
<stop offset="1" stop-color="#F8009E"/>
</linearGradient>
<linearGradient id="paint2_linear_5332_24297" x1="76.8672" y1="166.18" x2="193.13" y2="166.18" gradientUnits="userSpaceOnUse">
<stop stop-color="#95005F"/>
<stop offset="1" stop-color="#F8009E"/>
</linearGradient>
<linearGradient id="paint3_linear_5332_24297" x1="107.605" y1="57.3201" x2="162.393" y2="57.3201" gradientUnits="userSpaceOnUse">
<stop stop-color="#F15A29"/>
<stop offset="1" stop-color="#F7941E"/>
</linearGradient>
<radialGradient id="paint4_radial_5332_24297" cx="0" cy="0" r="1" gradientUnits="userSpaceOnUse" gradientTransform="translate(152.462 99.795) scale(67.4399 99.817)">
<stop stop-color="#A00D6A"/>
<stop offset="0.1" stop-color="#A0136C"/>
<stop offset="0.22" stop-color="#A82477"/>
<stop offset="0.37" stop-color="#B04087"/>
<stop offset="0.53" stop-color="#C266A0"/>
<stop offset="0.7" stop-color="#D699C0"/>
<stop offset="0.87" stop-color="#EED3E4"/>
<stop offset="0.99" stop-color="white"/>
</radialGradient>
<linearGradient id="paint5_linear_5332_24297" x1="127.196" y1="102.97" x2="213.166" y2="65.0521" gradientUnits="userSpaceOnUse">
<stop stop-color="#F8009E"/>
<stop offset="1" stop-color="#FDBFE7"/>
</linearGradient>
<linearGradient id="paint6_linear_5332_24297" x1="179.036" y1="48.8798" x2="203.652" y2="23.881" gradientUnits="userSpaceOnUse">
<stop stop-color="#FA4DBB"/>
<stop offset="1" stop-color="#FEE6F5"/>
</linearGradient>
<linearGradient id="paint7_linear_5332_24297" x1="155.43" y1="52.4255" x2="240.368" y2="25.4107" gradientUnits="userSpaceOnUse">
<stop stop-color="#F8009E"/>
<stop offset="1" stop-color="#FEE6F5"/>
</linearGradient>
<linearGradient id="paint8_linear_5332_24297" x1="126.219" y1="125.618" x2="271.693" y2="79.3483" gradientUnits="userSpaceOnUse">
<stop stop-color="#F8009E"/>
<stop offset="1" stop-color="#FDBFE7"/>
</linearGradient>
<linearGradient id="paint9_linear_5332_24297" x1="254.659" y1="171.889" x2="59.7862" y2="67.6365" gradientUnits="userSpaceOnUse">
<stop stop-color="#FA4DBB"/>
<stop offset="0.61" stop-color="#FEE6F5"/>
<stop offset="0.99" stop-color="#FA4DBB"/>
</linearGradient>
<linearGradient id="paint10_linear_5332_24297" x1="147.054" y1="112.793" x2="198.129" y2="156.412" gradientUnits="userSpaceOnUse">
<stop stop-color="#F8009E"/>
<stop offset="0.61" stop-color="#FDBFE7"/>
<stop offset="0.99" stop-color="#F8009E"/>
</linearGradient>
<linearGradient id="paint11_linear_5332_24297" x1="131.036" y1="82.8526" x2="162.792" y2="122.44" gradientUnits="userSpaceOnUse">
<stop stop-color="#FA4DBB"/>
<stop offset="1" stop-color="#FEE6F5"/>
</linearGradient>
<linearGradient id="paint12_linear_5332_24297" x1="127.757" y1="122.162" x2="167.146" y2="74.6193" gradientUnits="userSpaceOnUse">
<stop stop-color="#F8009E"/>
<stop offset="1" stop-color="#FC99D8"/>
</linearGradient>
<linearGradient id="paint13_linear_5332_24297" x1="82.2101" y1="62.767" x2="115.896" y2="83.6796" gradientUnits="userSpaceOnUse">
<stop stop-color="#F8009E"/>
<stop offset="1" stop-color="#FDBFE7"/>
</linearGradient>
<linearGradient id="paint14_linear_5332_24297" x1="84.9386" y1="58.37" x2="120.061" y2="80.1743" gradientUnits="userSpaceOnUse">
<stop stop-color="#F8009E"/>
<stop offset="1" stop-color="#FDBFE7"/>
</linearGradient>
<linearGradient id="paint15_linear_5332_24297" x1="115.42" y1="83.854" x2="117.121" y2="84.9102" gradientUnits="userSpaceOnUse">
<stop stop-color="#F8009E"/>
<stop offset="1" stop-color="#FC99D8"/>
</linearGradient>
<clipPath id="clip0_5332_24297">
<rect width="270" height="325" fill="white"/>
</clipPath>
</defs>
</svg>
